<svg width="36" height="36" viewBox="0 0 36 36" fill="none" xmlns="http://www.w3.org/2000/svg">
<path d="M18 0.5C27.665 0.5 35.5 8.33502 35.5 18C35.5 27.665 27.665 35.5 18 35.5C8.33502 35.5 0.5 27.665 0.5 18C0.5 8.33502 8.33502 0.5 18 0.5Z" fill="#EC221F"/>
<path d="M18 0.5C27.665 0.5 35.5 8.33502 35.5 18C35.5 27.665 27.665 35.5 18 35.5C8.33502 35.5 0.5 27.665 0.5 18C0.5 8.33502 8.33502 0.5 18 0.5Z" stroke="#900B09" stroke-linecap="round"/>
<path d="M10.5 13H12.1667M12.1667 13H25.5M12.1667 13L12.1667 24.6667C12.1667 25.1087 12.3423 25.5326 12.6548 25.8452C12.9674 26.1578 13.3913 26.3334 13.8333 26.3334H22.1667C22.6087 26.3334 23.0326 26.1578 23.3452 25.8452C23.6577 25.5326 23.8333 25.1087 23.8333 24.6667V13M14.6667 13V11.3334C14.6667 10.8913 14.8423 10.4674 15.1548 10.1548C15.4674 9.84228 15.8913 9.66669 16.3333 9.66669H19.6667C20.1087 9.66669 20.5326 9.84228 20.8452 10.1548C21.1577 10.4674 21.3333 10.8913 21.3333 11.3334V13M16.3333 17.1667V22.1667M19.6667 17.1667V22.1667" stroke="#900B09" stroke-width="2" stroke-linecap="round" stroke-linejoin="round"/>
</svg>
