<svg width="36" height="36" viewBox="0 0 36 36" fill="none" xmlns="http://www.w3.org/2000/svg">
<path d="M18 0.5C27.665 0.5 35.5 8.33502 35.5 18C35.5 27.665 27.665 35.5 18 35.5C8.33502 35.5 0.5 27.665 0.5 18C0.5 8.33502 8.33502 0.5 18 0.5Z" fill="#E8B931"/>
<path d="M18 0.5C27.665 0.5 35.5 8.33502 35.5 18C35.5 27.665 27.665 35.5 18 35.5C8.33502 35.5 0.5 27.665 0.5 18C0.5 8.33502 8.33502 0.5 18 0.5Z" stroke="#522504" stroke-linecap="round"/>
<g clip-path="url(#clip0_6_9583)">
<path d="M17.1667 11.3333H11.3334C10.8914 11.3333 10.4675 11.5089 10.1549 11.8215C9.84234 12.134 9.66675 12.558 9.66675 13V24.6667C9.66675 25.1087 9.84234 25.5326 10.1549 25.8452C10.4675 26.1577 10.8914 26.3333 11.3334 26.3333H23.0001C23.4421 26.3333 23.866 26.1577 24.1786 25.8452C24.4912 25.5326 24.6667 25.1087 24.6667 24.6667V18.8333M23.4167 10.0833C23.7483 9.7518 24.1979 9.56555 24.6667 9.56555C25.1356 9.56555 25.5852 9.7518 25.9167 10.0833C26.2483 10.4148 26.4345 10.8645 26.4345 11.3333C26.4345 11.8022 26.2483 12.2518 25.9167 12.5833L18.0001 20.5L14.6667 21.3333L15.5001 18L23.4167 10.0833Z" stroke="#522504" stroke-width="2" stroke-linecap="round" stroke-linejoin="round"/>
</g>
<defs>
<clipPath id="clip0_6_9583">
<rect width="20" height="20" fill="white" transform="translate(8 8)"/>
</clipPath>
</defs>
</svg>
