<svg width="36" height="36" viewBox="0 0 36 36" fill="none" xmlns="http://www.w3.org/2000/svg">
<path d="M18 0.5C27.665 0.5 35.5 8.33502 35.5 18C35.5 27.665 27.665 35.5 18 35.5C8.33502 35.5 0.5 27.665 0.5 18C0.5 8.33502 8.33502 0.5 18 0.5Z" fill="#14AE5C"/>
<path d="M18 0.5C27.665 0.5 35.5 8.33502 35.5 18C35.5 27.665 27.665 35.5 18 35.5C8.33502 35.5 0.5 27.665 0.5 18C0.5 8.33502 8.33502 0.5 18 0.5Z" stroke="#02542D" stroke-linecap="round"/>
<path d="M25.5 20.5V23.8333C25.5 24.2754 25.3244 24.6993 25.0118 25.0118C24.6993 25.3244 24.2754 25.5 23.8333 25.5H12.1667C11.7246 25.5 11.3007 25.3244 10.9882 25.0118C10.6756 24.6993 10.5 24.2754 10.5 23.8333V20.5M22.1667 14.6667L18 10.5M18 10.5L13.8333 14.6667M18 10.5V20.5" stroke="#02542D" stroke-width="2" stroke-linecap="round" stroke-linejoin="round"/>
</svg>
