<svg width="36" height="37" viewBox="0 0 36 37" fill="none" xmlns="http://www.w3.org/2000/svg">
<path d="M18 1.16666C27.665 1.16666 35.5 9.00167 35.5 18.6667C35.5 28.3316 27.665 36.1667 18 36.1667C8.33502 36.1667 0.5 28.3316 0.5 18.6667C0.5 9.00167 8.33502 1.16666 18 1.16666Z" fill="#CDCDCD"/>
<path d="M18 1.16666C27.665 1.16666 35.5 9.00167 35.5 18.6667C35.5 28.3316 27.665 36.1667 18 36.1667C8.33502 36.1667 0.5 28.3316 0.5 18.6667C0.5 9.00167 8.33502 1.16666 18 1.16666Z" stroke="#303030" stroke-linecap="round"/>
<path d="M25.5 21.1667V24.5C25.5 24.942 25.3244 25.3659 25.0118 25.6785C24.6993 25.9911 24.2754 26.1667 23.8333 26.1667H12.1667C11.7246 26.1667 11.3007 25.9911 10.9882 25.6785C10.6756 25.3659 10.5 24.942 10.5 24.5V21.1667M13.8333 17L18 21.1667M18 21.1667L22.1667 17M18 21.1667V11.1667" stroke="#303030" stroke-width="2" stroke-linecap="round" stroke-linejoin="round"/>
</svg>
